<?xml version="1.0" encoding="UTF-8" standalone="no"?>
<!-- Created with Inkscape (http://www.inkscape.org/) -->

<svg
   xmlns:dc="http://purl.org/dc/elements/1.1/"
   xmlns:cc="http://creativecommons.org/ns#"
   xmlns:rdf="http://www.w3.org/1999/02/22-rdf-syntax-ns#"
   xmlns:svg="http://www.w3.org/2000/svg"
   xmlns="http://www.w3.org/2000/svg"
   xmlns:sodipodi="http://sodipodi.sourceforge.net/DTD/sodipodi-0.dtd"
   xmlns:inkscape="http://www.inkscape.org/namespaces/inkscape"
   width="744.09448819"
   height="1052.3622047"
   id="svg2"
   version="1.1"
   inkscape:version="0.48.5 r10040"
   sodipodi:docname="New document 1">
  <defs
     id="defs4" />
  <sodipodi:namedview
     id="base"
     pagecolor="#ffffff"
     bordercolor="#666666"
     borderopacity="1.0"
     inkscape:pageopacity="0.0"
     inkscape:pageshadow="2"
     inkscape:zoom="0.24748737"
     inkscape:cx="-604.06965"
     inkscape:cy="710.03902"
     inkscape:document-units="px"
     inkscape:current-layer="layer1"
     showgrid="false"
     inkscape:window-width="1366"
     inkscape:window-height="705"
     inkscape:window-x="-8"
     inkscape:window-y="-8"
     inkscape:window-maximized="1">
    <inkscape:grid
       type="xygrid"
       id="grid3956" />
  </sodipodi:namedview>
  <metadata
     id="metadata7">
    <rdf:RDF>
      <cc:Work
         rdf:about="">
        <dc:format>image/svg+xml</dc:format>
        <dc:type
           rdf:resource="http://purl.org/dc/dcmitype/StillImage" />
        <dc:title></dc:title>
      </cc:Work>
    </rdf:RDF>
  </metadata>
  <g
     inkscape:label="Layer 1"
     inkscape:groupmode="layer"
     id="layer1">
    <path
       style="fill:#3e4848;fill-opacity:1;fill-rule:nonzero;stroke:none"
       d="m 119.5003,77.121215 0,0.042 -1.51442,0 -1.21996,0 0,0.042 C 71.14367,78.657542 34.30005,114.71431 31.53741,159.99382 l -0.29447,0 0,3.40745 0,201.08208 0,3.40746 0.16827,0 c 1.95968,46.05006 39.17893,82.96133 85.35471,84.42923 l 0,0.16827 523.23408,0 0,-0.12613 c 0.112,2.6e-4 0.22435,0 0.33654,0 47.48742,0 86.2139,-37.47649 88.21529,-84.4713 l 0.37861,0 0,-3.40746 0,-201.08208 0,-3.40746 -0.50481,0 C 725.63276,114.26194 688.06257,77.926446 641.8089,77.163283 l -1.8089,0 -2.22957,0 c 0.84781,-0.03002 1.71064,-0.042 2.56611,-0.042 l -5.09016,0 0,0.042 -514.14752,0 c -0.49428,-0.0081 -0.97613,-0.042 -1.47235,-0.042 l -0.12614,0 z"
       id="path3883"
       inkscape:connector-curvature="0" />
    <path
       sodipodi:type="inkscape:offset"
       inkscape:radius="0"
       inkscape:original="M 167.875 522 L 167.875 522.03125 L 166.75 522.03125 L 165.84375 522.03125 L 165.84375 522.0625 C 131.95299 523.14137 104.58349 549.92635 102.53125 583.5625 L 102.3125 583.5625 L 102.3125 586.09375 L 102.3125 735.46875 L 102.3125 738 L 102.4375 738 C 103.89326 772.20856 131.5418 799.62831 165.84375 800.71875 L 165.84375 800.84375 L 554.53125 800.84375 L 554.53125 800.75 C 554.61445 800.7502 554.69791 800.75 554.78125 800.75 C 590.05756 800.75 618.82575 772.91037 620.3125 738 L 620.59375 738 L 620.59375 735.46875 L 620.59375 586.09375 L 620.59375 583.5625 L 620.21875 583.5625 C 618.14405 549.59026 590.23481 522.59817 555.875 522.03125 L 554.53125 522.03125 L 552.875 522.03125 C 553.5048 522.00895 554.14576 522 554.78125 522 L 551 522 L 551 522.03125 L 169.0625 522.03125 C 168.69532 522.02525 168.33737 522 167.96875 522 L 167.875 522 z "
       style="fill:#f6f4f4;fill-opacity:1;fill-rule:nonzero;stroke:none"
       id="path3964"
       d="m 167.875,522 0,0.0312 -1.125,0 -0.90625,0 0,0.0312 c -33.89076,1.07887 -61.26026,27.86385 -63.3125,61.5 l -0.21875,0 0,2.53125 0,149.375 0,2.53125 0.125,0 c 1.45576,34.20856 29.1043,61.62831 63.40625,62.71875 l 0,0.125 388.6875,0 0,-0.0937 c 0.0832,2e-4 0.16666,0 0.25,0 35.27631,0 64.0445,-27.83963 65.53125,-62.75 l 0.28125,0 0,-2.53125 0,-149.375 0,-2.53125 -0.375,0 c -2.0747,-33.97224 -29.98394,-60.96433 -64.34375,-61.53125 l -1.34375,0 -1.65625,0 C 553.5048,522.00895 554.14576,522 554.78125,522 L 551,522 l 0,0.0312 -381.9375,0 C 168.69532,522.02525 168.33737,522 167.96875,522 l -0.0937,0 z"
       transform="matrix(0.16206555,0,0,0.21102768,124.3026,69.700694)" />
    <path
       transform="matrix(0,0.27026499,-0.35191559,0,558.14638,197.83773)"
       d="m 167.875,522 0,0.0312 -1.125,0 -0.90625,0 0,0.0312 c -33.89076,1.07887 -61.26026,27.86385 -63.3125,61.5 l -0.21875,0 0,2.53125 0,149.375 0,2.53125 0.125,0 c 1.45576,34.20856 29.1043,61.62831 63.40625,62.71875 l 0,0.125 388.6875,0 0,-0.0937 c 0.0832,2e-4 0.16666,0 0.25,0 35.27631,0 64.0445,-27.83963 65.53125,-62.75 l 0.28125,0 0,-2.53125 0,-149.375 0,-2.53125 -0.375,0 c -2.0747,-33.97224 -29.98394,-60.96433 -64.34375,-61.53125 l -1.34375,0 -1.65625,0 C 553.5048,522.00895 554.14576,522 554.78125,522 L 551,522 l 0,0.0312 -381.9375,0 C 168.69532,522.02525 168.33737,522 167.96875,522 l -0.0937,0 z"
       id="path3968"
       style="fill:#f6f4f4;fill-opacity:1;fill-rule:nonzero;stroke:none"
       inkscape:original="M 167.875 522 L 167.875 522.03125 L 166.75 522.03125 L 165.84375 522.03125 L 165.84375 522.0625 C 131.95299 523.14137 104.58349 549.92635 102.53125 583.5625 L 102.3125 583.5625 L 102.3125 586.09375 L 102.3125 735.46875 L 102.3125 738 L 102.4375 738 C 103.89326 772.20856 131.5418 799.62831 165.84375 800.71875 L 165.84375 800.84375 L 554.53125 800.84375 L 554.53125 800.75 C 554.61445 800.7502 554.69791 800.75 554.78125 800.75 C 590.05756 800.75 618.82575 772.91037 620.3125 738 L 620.59375 738 L 620.59375 735.46875 L 620.59375 586.09375 L 620.59375 583.5625 L 620.21875 583.5625 C 618.14405 549.59026 590.23481 522.59817 555.875 522.03125 L 554.53125 522.03125 L 552.875 522.03125 C 553.5048 522.00895 554.14576 522 554.78125 522 L 551 522 L 551 522.03125 L 169.0625 522.03125 C 168.69532 522.02525 168.33737 522 167.96875 522 L 167.875 522 z "
       inkscape:radius="0"
       sodipodi:type="inkscape:offset" />
    <path
       transform="matrix(0,0.16206555,-0.21102768,0,729.78145,264.98563)"
       d="m 167.875,522 0,0.0312 -1.125,0 -0.90625,0 0,0.0312 c -33.89076,1.07887 -61.26026,27.86385 -63.3125,61.5 l -0.21875,0 0,2.53125 0,149.375 0,2.53125 0.125,0 c 1.45576,34.20856 29.1043,61.62831 63.40625,62.71875 l 0,0.125 388.6875,0 0,-0.0937 c 0.0832,2e-4 0.16666,0 0.25,0 35.27631,0 64.0445,-27.83963 65.53125,-62.75 l 0.28125,0 0,-2.53125 0,-149.375 0,-2.53125 -0.375,0 c -2.0747,-33.97224 -29.98394,-60.96433 -64.34375,-61.53125 l -1.34375,0 -1.65625,0 C 553.5048,522.00895 554.14576,522 554.78125,522 L 551,522 l 0,0.0312 -381.9375,0 C 168.69532,522.02525 168.33737,522 167.96875,522 l -0.0937,0 z"
       id="path3974"
       style="fill:#f6f4f4;fill-opacity:1;fill-rule:nonzero;stroke:none"
       inkscape:original="M 167.875 522 L 167.875 522.03125 L 166.75 522.03125 L 165.84375 522.03125 L 165.84375 522.0625 C 131.95299 523.14137 104.58349 549.92635 102.53125 583.5625 L 102.3125 583.5625 L 102.3125 586.09375 L 102.3125 735.46875 L 102.3125 738 L 102.4375 738 C 103.89326 772.20856 131.5418 799.62831 165.84375 800.71875 L 165.84375 800.84375 L 554.53125 800.84375 L 554.53125 800.75 C 554.61445 800.7502 554.69791 800.75 554.78125 800.75 C 590.05756 800.75 618.82575 772.91037 620.3125 738 L 620.59375 738 L 620.59375 735.46875 L 620.59375 586.09375 L 620.59375 583.5625 L 620.21875 583.5625 C 618.14405 549.59026 590.23481 522.59817 555.875 522.03125 L 554.53125 522.03125 L 552.875 522.03125 C 553.5048 522.00895 554.14576 522 554.78125 522 L 551 522 L 551 522.03125 L 169.0625 522.03125 C 168.69532 522.02525 168.33737 522 167.96875 522 L 167.875 522 z "
       inkscape:radius="0"
       sodipodi:type="inkscape:offset" />
    <path
       sodipodi:type="inkscape:offset"
       inkscape:radius="0"
       inkscape:original="M 167.875 522 L 167.875 522.03125 L 166.75 522.03125 L 165.84375 522.03125 L 165.84375 522.0625 C 131.95299 523.14137 104.58349 549.92635 102.53125 583.5625 L 102.3125 583.5625 L 102.3125 586.09375 L 102.3125 735.46875 L 102.3125 738 L 102.4375 738 C 103.89326 772.20856 131.5418 799.62831 165.84375 800.71875 L 165.84375 800.84375 L 554.53125 800.84375 L 554.53125 800.75 C 554.61445 800.7502 554.69791 800.75 554.78125 800.75 C 590.05756 800.75 618.82575 772.91037 620.3125 738 L 620.59375 738 L 620.59375 735.46875 L 620.59375 586.09375 L 620.59375 583.5625 L 620.21875 583.5625 C 618.14405 549.59026 590.23481 522.59817 555.875 522.03125 L 554.53125 522.03125 L 552.875 522.03125 C 553.5048 522.00895 554.14576 522 554.78125 522 L 551 522 L 551 522.03125 L 169.0625 522.03125 C 168.69532 522.02525 168.33737 522 167.96875 522 L 167.875 522 z "
       style="fill:#f6f4f4;fill-opacity:1;fill-rule:nonzero;stroke:none"
       id="path3976"
       d="m 167.875,522 0,0.0312 -1.125,0 -0.90625,0 0,0.0312 c -33.89076,1.07887 -61.26026,27.86385 -63.3125,61.5 l -0.21875,0 0,2.53125 0,149.375 0,2.53125 0.125,0 c 1.45576,34.20856 29.1043,61.62831 63.40625,62.71875 l 0,0.125 388.6875,0 0,-0.0937 c 0.0832,2e-4 0.16666,0 0.25,0 35.27631,0 64.0445,-27.83963 65.53125,-62.75 l 0.28125,0 0,-2.53125 0,-149.375 0,-2.53125 -0.375,0 c -2.0747,-33.97224 -29.98394,-60.96433 -64.34375,-61.53125 l -1.34375,0 -1.65625,0 C 553.5048,522.00895 554.14576,522 554.78125,522 L 551,522 l 0,0.0312 -381.9375,0 C 168.69532,522.02525 168.33737,522 167.96875,522 l -0.0937,0 z"
       transform="matrix(0,0.07661829,-0.21102768,0,729.96003,215.15653)" />
    <path
       transform="matrix(0,0.16206555,-0.21102768,0,309.60288,264.98564)"
       d="m 167.875,522 0,0.0312 -1.125,0 -0.90625,0 0,0.0312 c -33.89076,1.07887 -61.26026,27.86385 -63.3125,61.5 l -0.21875,0 0,2.53125 0,149.375 0,2.53125 0.125,0 c 1.45576,34.20856 29.1043,61.62831 63.40625,62.71875 l 0,0.125 388.6875,0 0,-0.0937 c 0.0832,2e-4 0.16666,0 0.25,0 35.27631,0 64.0445,-27.83963 65.53125,-62.75 l 0.28125,0 0,-2.53125 0,-149.375 0,-2.53125 -0.375,0 c -2.0747,-33.97224 -29.98394,-60.96433 -64.34375,-61.53125 l -1.34375,0 -1.65625,0 C 553.5048,522.00895 554.14576,522 554.78125,522 L 551,522 l 0,0.0312 -381.9375,0 C 168.69532,522.02525 168.33737,522 167.96875,522 l -0.0937,0 z"
       id="path3980"
       style="fill:#f6f4f4;fill-opacity:1;fill-rule:nonzero;stroke:none"
       inkscape:original="M 167.875 522 L 167.875 522.03125 L 166.75 522.03125 L 165.84375 522.03125 L 165.84375 522.0625 C 131.95299 523.14137 104.58349 549.92635 102.53125 583.5625 L 102.3125 583.5625 L 102.3125 586.09375 L 102.3125 735.46875 L 102.3125 738 L 102.4375 738 C 103.89326 772.20856 131.5418 799.62831 165.84375 800.71875 L 165.84375 800.84375 L 554.53125 800.84375 L 554.53125 800.75 C 554.61445 800.7502 554.69791 800.75 554.78125 800.75 C 590.05756 800.75 618.82575 772.91037 620.3125 738 L 620.59375 738 L 620.59375 735.46875 L 620.59375 586.09375 L 620.59375 583.5625 L 620.21875 583.5625 C 618.14405 549.59026 590.23481 522.59817 555.875 522.03125 L 554.53125 522.03125 L 552.875 522.03125 C 553.5048 522.00895 554.14576 522 554.78125 522 L 551 522 L 551 522.03125 L 169.0625 522.03125 C 168.69532 522.02525 168.33737 522 167.96875 522 L 167.875 522 z "
       inkscape:radius="0"
       sodipodi:type="inkscape:offset" />
    <path
       style="fill:#3e4848;fill-opacity:1;fill-rule:nonzero;stroke:none"
       d="m 54.581204,583.85623 0,0.042 -1.51442,0 -1.21996,0 0,0.042 c -45.62225,1.45233 -82.46587,37.5091 -85.22851,82.78861 l -0.29447,0 0,3.40745 0,201.08207 0,3.40746 0.16827,0 c 1.95968,46.05006 39.17893,82.96133 85.35471,84.42923 l 0,0.16827 523.234076,0 0,-0.12612 c 0.112,2.6e-4 0.22435,0 0.33654,0 47.48742,0 86.2139,-37.4765 88.21529,-84.4713 l 0.37861,0 0,-3.40746 0,-201.08208 0,-3.40746 -0.50481,0 c -2.79287,-45.73194 -40.36306,-82.06744 -86.61673,-82.8306 l -1.8089,0 -2.22957,0 c 0.84781,-0.03 1.71064,-0.042 2.56611,-0.042 l -5.09016,0 0,0.042 -514.147516,0 c -0.49428,-0.008 -0.97613,-0.042 -1.47235,-0.042 l -0.12614,0 z"
       id="path3883-8"
       inkscape:connector-curvature="0" />
    <path
       sodipodi:type="inkscape:offset"
       inkscape:radius="0"
       inkscape:original="M 167.875 522 L 167.875 522.03125 L 166.75 522.03125 L 165.84375 522.03125 L 165.84375 522.0625 C 131.95299 523.14137 104.58349 549.92635 102.53125 583.5625 L 102.3125 583.5625 L 102.3125 586.09375 L 102.3125 735.46875 L 102.3125 738 L 102.4375 738 C 103.89326 772.20856 131.5418 799.62831 165.84375 800.71875 L 165.84375 800.84375 L 554.53125 800.84375 L 554.53125 800.75 C 554.61445 800.7502 554.69791 800.75 554.78125 800.75 C 590.05756 800.75 618.82575 772.91037 620.3125 738 L 620.59375 738 L 620.59375 735.46875 L 620.59375 586.09375 L 620.59375 583.5625 L 620.21875 583.5625 C 618.14405 549.59026 590.23481 522.59817 555.875 522.03125 L 554.53125 522.03125 L 552.875 522.03125 C 553.5048 522.00895 554.14576 522 554.78125 522 L 551 522 L 551 522.03125 L 169.0625 522.03125 C 168.69532 522.02525 168.33737 522 167.96875 522 L 167.875 522 z "
       style="fill:#f6f4f4;fill-opacity:1;fill-rule:nonzero;stroke:none"
       id="path3964-2"
       d="m 167.875,522 0,0.0312 -1.125,0 -0.90625,0 0,0.0312 c -33.89076,1.07887 -61.26026,27.86385 -63.3125,61.5 l -0.21875,0 0,2.53125 0,149.375 0,2.53125 0.125,0 c 1.45576,34.20856 29.1043,61.62831 63.40625,62.71875 l 0,0.125 388.6875,0 0,-0.0937 c 0.0832,2e-4 0.16666,0 0.25,0 35.27631,0 64.0445,-27.83963 65.53125,-62.75 l 0.28125,0 0,-2.53125 0,-149.375 0,-2.53125 -0.375,0 c -2.0747,-33.97224 -29.98394,-60.96433 -64.34375,-61.53125 l -1.34375,0 -1.65625,0 C 553.5048,522.00895 554.14576,522 554.78125,522 L 551,522 l 0,0.0312 -381.9375,0 C 168.69532,522.02525 168.33737,522 167.96875,522 l -0.0937,0 z"
       transform="matrix(0.16206555,0,0,0.21102768,59.383504,576.43571)" />
    <path
       transform="matrix(0,0.16206555,-0.21102768,0,394.68378,771.72064)"
       d="m 167.875,522 0,0.0312 -1.125,0 -0.90625,0 0,0.0312 c -33.89076,1.07887 -61.26026,27.86385 -63.3125,61.5 l -0.21875,0 0,2.53125 0,149.375 0,2.53125 0.125,0 c 1.45576,34.20856 29.1043,61.62831 63.40625,62.71875 l 0,0.125 388.6875,0 0,-0.0937 c 0.0832,2e-4 0.16666,0 0.25,0 35.27631,0 64.0445,-27.83963 65.53125,-62.75 l 0.28125,0 0,-2.53125 0,-149.375 0,-2.53125 -0.375,0 c -2.0747,-33.97224 -29.98394,-60.96433 -64.34375,-61.53125 l -1.34375,0 -1.65625,0 C 553.5048,522.00895 554.14576,522 554.78125,522 L 551,522 l 0,0.0312 -381.9375,0 C 168.69532,522.02525 168.33737,522 167.96875,522 l -0.0937,0 z"
       id="path3968-4"
       style="fill:#f6f4f4;fill-opacity:1;fill-rule:nonzero;stroke:none"
       inkscape:original="M 167.875 522 L 167.875 522.03125 L 166.75 522.03125 L 165.84375 522.03125 L 165.84375 522.0625 C 131.95299 523.14137 104.58349 549.92635 102.53125 583.5625 L 102.3125 583.5625 L 102.3125 586.09375 L 102.3125 735.46875 L 102.3125 738 L 102.4375 738 C 103.89326 772.20856 131.5418 799.62831 165.84375 800.71875 L 165.84375 800.84375 L 554.53125 800.84375 L 554.53125 800.75 C 554.61445 800.7502 554.69791 800.75 554.78125 800.75 C 590.05756 800.75 618.82575 772.91037 620.3125 738 L 620.59375 738 L 620.59375 735.46875 L 620.59375 586.09375 L 620.59375 583.5625 L 620.21875 583.5625 C 618.14405 549.59026 590.23481 522.59817 555.875 522.03125 L 554.53125 522.03125 L 552.875 522.03125 C 553.5048 522.00895 554.14576 522 554.78125 522 L 551 522 L 551 522.03125 L 169.0625 522.03125 C 168.69532 522.02525 168.33737 522 167.96875 522 L 167.875 522 z "
       inkscape:radius="0"
       sodipodi:type="inkscape:offset" />
    <path
       sodipodi:type="inkscape:offset"
       inkscape:radius="0"
       inkscape:original="M 167.875 522 L 167.875 522.03125 L 166.75 522.03125 L 165.84375 522.03125 L 165.84375 522.0625 C 131.95299 523.14137 104.58349 549.92635 102.53125 583.5625 L 102.3125 583.5625 L 102.3125 586.09375 L 102.3125 735.46875 L 102.3125 738 L 102.4375 738 C 103.89326 772.20856 131.5418 799.62831 165.84375 800.71875 L 165.84375 800.84375 L 554.53125 800.84375 L 554.53125 800.75 C 554.61445 800.7502 554.69791 800.75 554.78125 800.75 C 590.05756 800.75 618.82575 772.91037 620.3125 738 L 620.59375 738 L 620.59375 735.46875 L 620.59375 586.09375 L 620.59375 583.5625 L 620.21875 583.5625 C 618.14405 549.59026 590.23481 522.59817 555.875 522.03125 L 554.53125 522.03125 L 552.875 522.03125 C 553.5048 522.00895 554.14576 522 554.78125 522 L 551 522 L 551 522.03125 L 169.0625 522.03125 C 168.69532 522.02525 168.33737 522 167.96875 522 L 167.875 522 z "
       style="fill:#f6f4f4;fill-opacity:1;fill-rule:nonzero;stroke:none"
       id="path3970-5"
       d="m 167.875,522 0,0.0312 -1.125,0 -0.90625,0 0,0.0312 c -33.89076,1.07887 -61.26026,27.86385 -63.3125,61.5 l -0.21875,0 0,2.53125 0,149.375 0,2.53125 0.125,0 c 1.45576,34.20856 29.1043,61.62831 63.40625,62.71875 l 0,0.125 388.6875,0 0,-0.0937 c 0.0832,2e-4 0.16666,0 0.25,0 35.27631,0 64.0445,-27.83963 65.53125,-62.75 l 0.28125,0 0,-2.53125 0,-149.375 0,-2.53125 -0.375,0 c -2.0747,-33.97224 -29.98394,-60.96433 -64.34375,-61.53125 l -1.34375,0 -1.65625,0 C 553.5048,522.00895 554.14576,522 554.78125,522 L 551,522 l 0,0.0312 -381.9375,0 C 168.69532,522.02525 168.33737,522 167.96875,522 l -0.0937,0 z"
       transform="matrix(0,0.16206555,-0.21102768,0,528.9695,771.72064)" />
    <path
       transform="matrix(0,0.16206555,-0.21102768,0,664.86235,771.72064)"
       d="m 167.875,522 0,0.0312 -1.125,0 -0.90625,0 0,0.0312 c -33.89076,1.07887 -61.26026,27.86385 -63.3125,61.5 l -0.21875,0 0,2.53125 0,149.375 0,2.53125 0.125,0 c 1.45576,34.20856 29.1043,61.62831 63.40625,62.71875 l 0,0.125 388.6875,0 0,-0.0937 c 0.0832,2e-4 0.16666,0 0.25,0 35.27631,0 64.0445,-27.83963 65.53125,-62.75 l 0.28125,0 0,-2.53125 0,-149.375 0,-2.53125 -0.375,0 c -2.0747,-33.97224 -29.98394,-60.96433 -64.34375,-61.53125 l -1.34375,0 -1.65625,0 C 553.5048,522.00895 554.14576,522 554.78125,522 L 551,522 l 0,0.0312 -381.9375,0 C 168.69532,522.02525 168.33737,522 167.96875,522 l -0.0937,0 z"
       id="path3974-5"
       style="fill:#f6f4f4;fill-opacity:1;fill-rule:nonzero;stroke:none"
       inkscape:original="M 167.875 522 L 167.875 522.03125 L 166.75 522.03125 L 165.84375 522.03125 L 165.84375 522.0625 C 131.95299 523.14137 104.58349 549.92635 102.53125 583.5625 L 102.3125 583.5625 L 102.3125 586.09375 L 102.3125 735.46875 L 102.3125 738 L 102.4375 738 C 103.89326 772.20856 131.5418 799.62831 165.84375 800.71875 L 165.84375 800.84375 L 554.53125 800.84375 L 554.53125 800.75 C 554.61445 800.7502 554.69791 800.75 554.78125 800.75 C 590.05756 800.75 618.82575 772.91037 620.3125 738 L 620.59375 738 L 620.59375 735.46875 L 620.59375 586.09375 L 620.59375 583.5625 L 620.21875 583.5625 C 618.14405 549.59026 590.23481 522.59817 555.875 522.03125 L 554.53125 522.03125 L 552.875 522.03125 C 553.5048 522.00895 554.14576 522 554.78125 522 L 551 522 L 551 522.03125 L 169.0625 522.03125 C 168.69532 522.02525 168.33737 522 167.96875 522 L 167.875 522 z "
       inkscape:radius="0"
       sodipodi:type="inkscape:offset" />
    <path
       sodipodi:type="inkscape:offset"
       inkscape:radius="0"
       inkscape:original="M 167.875 522 L 167.875 522.03125 L 166.75 522.03125 L 165.84375 522.03125 L 165.84375 522.0625 C 131.95299 523.14137 104.58349 549.92635 102.53125 583.5625 L 102.3125 583.5625 L 102.3125 586.09375 L 102.3125 735.46875 L 102.3125 738 L 102.4375 738 C 103.89326 772.20856 131.5418 799.62831 165.84375 800.71875 L 165.84375 800.84375 L 554.53125 800.84375 L 554.53125 800.75 C 554.61445 800.7502 554.69791 800.75 554.78125 800.75 C 590.05756 800.75 618.82575 772.91037 620.3125 738 L 620.59375 738 L 620.59375 735.46875 L 620.59375 586.09375 L 620.59375 583.5625 L 620.21875 583.5625 C 618.14405 549.59026 590.23481 522.59817 555.875 522.03125 L 554.53125 522.03125 L 552.875 522.03125 C 553.5048 522.00895 554.14576 522 554.78125 522 L 551 522 L 551 522.03125 L 169.0625 522.03125 C 168.69532 522.02525 168.33737 522 167.96875 522 L 167.875 522 z "
       style="fill:#f6f4f4;fill-opacity:1;fill-rule:nonzero;stroke:none"
       id="path3976-1"
       d="m 167.875,522 0,0.0312 -1.125,0 -0.90625,0 0,0.0312 c -33.89076,1.07887 -61.26026,27.86385 -63.3125,61.5 l -0.21875,0 0,2.53125 0,149.375 0,2.53125 0.125,0 c 1.45576,34.20856 29.1043,61.62831 63.40625,62.71875 l 0,0.125 388.6875,0 0,-0.0937 c 0.0832,2e-4 0.16666,0 0.25,0 35.27631,0 64.0445,-27.83963 65.53125,-62.75 l 0.28125,0 0,-2.53125 0,-149.375 0,-2.53125 -0.375,0 c -2.0747,-33.97224 -29.98394,-60.96433 -64.34375,-61.53125 l -1.34375,0 -1.65625,0 C 553.5048,522.00895 554.14576,522 554.78125,522 L 551,522 l 0,0.0312 -381.9375,0 C 168.69532,522.02525 168.33737,522 167.96875,522 l -0.0937,0 z"
       transform="matrix(0,0.07661829,-0.21102768,0,665.04093,721.89154)" />
    <path
       transform="matrix(0,0.16206555,-0.21102768,0,244.68378,771.72065)"
       d="m 167.875,522 0,0.0312 -1.125,0 -0.90625,0 0,0.0312 c -33.89076,1.07887 -61.26026,27.86385 -63.3125,61.5 l -0.21875,0 0,2.53125 0,149.375 0,2.53125 0.125,0 c 1.45576,34.20856 29.1043,61.62831 63.40625,62.71875 l 0,0.125 388.6875,0 0,-0.0937 c 0.0832,2e-4 0.16666,0 0.25,0 35.27631,0 64.0445,-27.83963 65.53125,-62.75 l 0.28125,0 0,-2.53125 0,-149.375 0,-2.53125 -0.375,0 c -2.0747,-33.97224 -29.98394,-60.96433 -64.34375,-61.53125 l -1.34375,0 -1.65625,0 C 553.5048,522.00895 554.14576,522 554.78125,522 L 551,522 l 0,0.0312 -381.9375,0 C 168.69532,522.02525 168.33737,522 167.96875,522 l -0.0937,0 z"
       id="path3980-7"
       style="fill:#f6f4f4;fill-opacity:1;fill-rule:nonzero;stroke:none"
       inkscape:original="M 167.875 522 L 167.875 522.03125 L 166.75 522.03125 L 165.84375 522.03125 L 165.84375 522.0625 C 131.95299 523.14137 104.58349 549.92635 102.53125 583.5625 L 102.3125 583.5625 L 102.3125 586.09375 L 102.3125 735.46875 L 102.3125 738 L 102.4375 738 C 103.89326 772.20856 131.5418 799.62831 165.84375 800.71875 L 165.84375 800.84375 L 554.53125 800.84375 L 554.53125 800.75 C 554.61445 800.7502 554.69791 800.75 554.78125 800.75 C 590.05756 800.75 618.82575 772.91037 620.3125 738 L 620.59375 738 L 620.59375 735.46875 L 620.59375 586.09375 L 620.59375 583.5625 L 620.21875 583.5625 C 618.14405 549.59026 590.23481 522.59817 555.875 522.03125 L 554.53125 522.03125 L 552.875 522.03125 C 553.5048 522.00895 554.14576 522 554.78125 522 L 551 522 L 551 522.03125 L 169.0625 522.03125 C 168.69532 522.02525 168.33737 522 167.96875 522 L 167.875 522 z "
       inkscape:radius="0"
       sodipodi:type="inkscape:offset" />
    <path
       sodipodi:type="inkscape:offset"
       inkscape:radius="0"
       inkscape:original="M 167.875 522 L 167.875 522.03125 L 166.75 522.03125 L 165.84375 522.03125 L 165.84375 522.0625 C 131.95299 523.14137 104.58349 549.92635 102.53125 583.5625 L 102.3125 583.5625 L 102.3125 586.09375 L 102.3125 735.46875 L 102.3125 738 L 102.4375 738 C 103.89326 772.20856 131.5418 799.62831 165.84375 800.71875 L 165.84375 800.84375 L 554.53125 800.84375 L 554.53125 800.75 C 554.61445 800.7502 554.69791 800.75 554.78125 800.75 C 590.05756 800.75 618.82575 772.91037 620.3125 738 L 620.59375 738 L 620.59375 735.46875 L 620.59375 586.09375 L 620.59375 583.5625 L 620.21875 583.5625 C 618.14405 549.59026 590.23481 522.59817 555.875 522.03125 L 554.53125 522.03125 L 552.875 522.03125 C 553.5048 522.00895 554.14576 522 554.78125 522 L 551 522 L 551 522.03125 L 169.0625 522.03125 C 168.69532 522.02525 168.33737 522 167.96875 522 L 167.875 522 z "
       style="fill:#f6f4f4;fill-opacity:1;fill-rule:nonzero;stroke:none"
       id="path4024"
       d="m 167.875,522 0,0.0312 -1.125,0 -0.90625,0 0,0.0312 c -33.89076,1.07887 -61.26026,27.86385 -63.3125,61.5 l -0.21875,0 0,2.53125 0,149.375 0,2.53125 0.125,0 c 1.45576,34.20856 29.1043,61.62831 63.40625,62.71875 l 0,0.125 388.6875,0 0,-0.0937 c 0.0832,2e-4 0.16666,0 0.25,0 35.27631,0 64.0445,-27.83963 65.53125,-62.75 l 0.28125,0 0,-2.53125 0,-149.375 0,-2.53125 -0.375,0 c -2.0747,-33.97224 -29.98394,-60.96433 -64.34375,-61.53125 l -1.34375,0 -1.65625,0 C 553.5048,522.00895 554.14576,522 554.78125,522 L 551,522 l 0,0.0312 -381.9375,0 C 168.69532,522.02525 168.33737,522 167.96875,522 l -0.0937,0 z"
       transform="matrix(0,0.27026499,-0.35191559,0,699.57495,197.83773)" />
  </g>
</svg>
